<svg width="191" height="230" viewBox="0 0 191 230" fill="none" xmlns="http://www.w3.org/2000/svg">
<path d="M130.941 92.9494C123.618 98.1564 117.791 104.14 113.174 110.297C117.154 95.2796 119.733 78.1914 116.262 64.4979C108.302 32.8531 95.0252 0 95.0252 0C95.0252 0 81.7479 32.8531 73.7879 64.4979C70.3174 78.2202 72.8964 95.366 76.9082 110.412C72.3233 104.227 66.4647 98.1852 59.0778 92.9494C27.1105 70.3377 14.9794 116.079 35.5799 125.285C56.1485 134.49 67.7383 111.332 94.3247 153.19L95.0252 155.836L95.6938 153.19C122.28 111.332 133.838 134.49 154.439 125.285C175.039 116.075 162.908 70.3377 130.941 92.9494ZM117.854 117.46C114.257 120.135 111.327 123.271 108.78 126.608C106.265 129.916 103.749 133.311 101.457 136.878C99.2599 140.388 97.3495 144.099 96.4262 147.896C96.4262 147.954 96.3943 147.983 96.3943 148.011L95.4709 149.536L94.4839 148.011C93.5924 144.156 91.682 140.417 89.4213 136.878C87.1288 133.311 84.6135 129.916 82.0981 126.608C79.5509 123.271 76.6217 120.135 73.0237 117.46C69.4577 114.756 65.0956 112.656 59.9375 111.246L60.0331 110.786C65.7006 110.757 71.4636 112.425 76.0167 115.072C80.6653 117.632 84.1996 121.027 87.097 124.565C89.9626 128.133 91.7775 132.045 93.0511 135.986C93.3695 136.936 93.6561 137.885 93.9426 138.834C93.6561 136.015 93.3058 133.196 93.0193 130.377C92.8601 128.909 92.7646 127.442 92.669 125.975C92.478 123.041 92.3825 120.135 92.2551 117.201C92.1914 115.734 92.1277 114.295 92.0641 112.828C91.9685 108.225 92.1277 103.594 92.4143 98.9619C92.5098 97.7536 92.6054 96.5166 92.7009 95.3084C92.7327 94.5604 92.7964 93.8412 92.8919 93.122C92.9556 92.4028 93.0193 91.6548 93.083 90.9356C93.4014 88.0013 93.8152 85.067 94.2928 82.1326C94.5476 80.6942 94.8341 79.2271 95.1525 77.7599H95.7575C95.8531 78.2202 95.9167 78.6517 96.0122 79.1408C96.0122 79.1983 96.0441 79.2558 96.0441 79.3134C96.2351 80.349 96.458 81.3847 96.6172 82.4491C96.8082 83.5135 96.9993 84.5491 97.1266 85.6135C97.2221 86.2752 97.3176 86.9081 97.3813 87.5698C97.5724 88.8643 97.6997 90.159 97.8271 91.4247C97.9863 92.7481 98.0818 94.0138 98.2092 95.3084C98.655 101.148 98.9415 106.988 98.8141 112.828C98.6549 115.734 98.5913 118.668 98.4639 121.602C98.3365 124.508 98.1455 127.442 97.8908 130.377C97.8271 131.096 97.7316 131.844 97.6679 132.563C97.5087 134.001 97.3177 135.468 97.1585 136.936C97.0629 137.597 96.9993 138.288 96.9356 138.949C96.9356 138.921 96.9675 138.863 96.9675 138.834C97.254 137.885 97.5406 136.936 97.859 135.986C99.1007 132.045 100.947 128.133 103.813 124.565C106.71 121.027 110.245 117.632 114.893 115.072C119.415 112.425 125.209 110.757 130.877 110.786L130.973 111.246C125.783 112.652 121.421 114.756 117.854 117.46Z" fill="#383632"/>
<path d="M31.9818 130.089C-6.89485 121.286 -7.85003 161.417 15.8071 162.798C39.496 164.179 45.6411 142.287 83.7854 168.091C83.7854 168.091 70.8584 138.892 31.9818 130.089ZM51.3723 148.414C47.0421 147.033 42.5845 146.228 38.0632 145.71C33.542 145.221 28.957 145.422 24.2447 145.911C28.6068 144.358 33.3827 143.322 38.2224 143.466C43.0302 143.524 47.8381 144.3 52.3594 145.681C61.4019 148.558 69.7122 153.247 76.0802 159.576C72.132 157.246 68.0565 155.203 63.981 153.276C59.8736 151.402 55.6707 149.734 51.3723 148.414Z" fill="#383632"/>
<path d="M37.331 178.793C13.26 191.796 34.752 212.107 47.2333 202.21C59.7145 192.314 50.7675 178.736 83.7855 174.449C83.7855 174.449 61.402 165.758 37.331 178.793ZM55.5435 180.059C54.238 180.893 52.9326 181.785 51.7864 182.821L49.9715 184.317C49.4621 184.863 48.8889 185.439 48.3477 185.956C47.1696 187.021 46.278 188.287 45.1955 189.466C44.1766 190.674 43.3169 191.969 42.2344 193.235C42.6801 191.739 43.1577 190.214 43.8264 188.747C44.6542 187.366 45.291 185.87 46.3736 184.604C48.2203 181.871 50.863 179.656 53.7286 177.7C56.6261 175.83 59.9374 174.507 63.3761 173.788C66.8149 173.04 70.4128 172.867 73.7878 173.586C70.3809 174.075 67.1651 174.852 64.1084 175.916C61.0836 177.01 58.1544 178.301 55.5435 180.059Z" fill="#383632"/>
<path d="M94.0546 180.451L110.675 199.61L94.0546 229.356L77.4023 199.61L94.0546 180.451Z" fill="#383632"/>
<path d="M158.61 130.089C119.734 138.892 106.807 168.091 106.807 168.091C144.951 142.286 151.096 164.179 174.785 162.798C198.442 161.414 197.487 121.282 158.61 130.089ZM152.529 145.71C148.008 146.228 143.55 147.033 139.22 148.414C134.921 149.737 130.718 151.406 126.611 153.276C122.536 155.203 118.46 157.246 114.512 159.576C120.88 153.247 129.19 148.558 138.233 145.681C142.754 144.3 147.562 143.524 152.37 143.466C157.209 143.322 161.985 144.358 166.347 145.911C161.635 145.419 157.05 145.217 152.529 145.71Z" fill="#383632"/>
<path d="M153.261 178.793C129.19 165.761 106.807 174.449 106.807 174.449C139.825 178.736 130.878 192.314 143.359 202.21C155.84 212.103 177.332 191.793 153.261 178.793ZM145.397 189.463C144.314 188.283 143.423 187.017 142.245 185.953C141.703 185.435 141.13 184.86 140.621 184.313L138.806 182.817C137.66 181.781 136.354 180.89 135.049 180.055C132.438 178.3 129.509 177.006 126.484 175.913C123.427 174.848 120.211 174.072 116.804 173.583C120.179 172.863 123.777 173.036 127.216 173.784C130.655 174.503 133.966 175.826 136.864 177.696C139.729 179.653 142.372 181.868 144.219 184.601C145.301 185.866 145.938 187.362 146.766 188.743C147.403 190.21 147.912 191.735 148.358 193.231C147.275 191.965 146.416 190.674 145.397 189.463Z" fill="#383632"/>
</svg>
